<svg xmlns="http://www.w3.org/2000/svg" viewBox="0 0 256 256">
  <rect width="256" height="256" rx="48" fill="#1a1a2e"/>
  <!-- Sonne -->
  <circle cx="170" cy="80" r="28" fill="#f39c12" opacity="0.9"/>
  <line x1="170" y1="40" x2="170" y2="28" stroke="#f39c12" stroke-width="6" stroke-linecap="round"/>
  <line x1="170" y1="120" x2="170" y2="132" stroke="#f39c12" stroke-width="6" stroke-linecap="round"/>
  <line x1="130" y1="80" x2="118" y2="80" stroke="#f39c12" stroke-width="6" stroke-linecap="round"/>
  <line x1="210" y1="80" x2="222" y2="80" stroke="#f39c12" stroke-width="6" stroke-linecap="round"/>
  <line x1="142" y1="52" x2="134" y2="44" stroke="#f39c12" stroke-width="6" stroke-linecap="round"/>
  <line x1="198" y1="108" x2="206" y2="116" stroke="#f39c12" stroke-width="6" stroke-linecap="round"/>
  <line x1="198" y1="52" x2="206" y2="44" stroke="#f39c12" stroke-width="6" stroke-linecap="round"/>
  <line x1="142" y1="108" x2="134" y2="116" stroke="#f39c12" stroke-width="6" stroke-linecap="round"/>
  <!-- Thermometer Rohr -->
  <rect x="100" y="60" width="28" height="120" rx="14" fill="#2c3e50"/>
  <rect x="108" y="68" width="12" height="90" rx="6" fill="#1a1a2e"/>
  <!-- Thermometer Quecksilber -->
  <rect x="110" y="110" width="8" height="48" rx="4" fill="#e74c3c"/>
  <!-- Thermometer Kugel -->
  <circle cx="114" cy="168" r="18" fill="#e74c3c"/>
  <!-- Skala-Striche -->
  <line x1="128" y1="100" x2="135" y2="100" stroke="#7f8c8d" stroke-width="3" stroke-linecap="round"/>
  <line x1="128" y1="120" x2="138" y2="120" stroke="#7f8c8d" stroke-width="3" stroke-linecap="round"/>
  <line x1="128" y1="140" x2="135" y2="140" stroke="#7f8c8d" stroke-width="3" stroke-linecap="round"/>
</svg>